<mxfile host="app.diagrams.net" agent="Mozilla/5.0 (Macintosh; Intel Mac OS X 10_15_7) AppleWebKit/537.36 (KHTML, like Gecko) Chrome/131.0.0.0 Safari/537.36" version="26.0.11">
  <diagram name="第 1 页" id="ejxRqYJMVjcNFdJwCMO_">
    <mxGraphModel dx="358" dy="578" grid="1" gridSize="10" guides="1" tooltips="1" connect="1" arrows="1" fold="1" page="1" pageScale="1" pageWidth="1169" pageHeight="827" math="1" shadow="0">
      <root>
        <mxCell id="0" />
        <mxCell id="1" parent="0" />
        <mxCell id="o7wSBpF5EXSMg-6rn1h5-3" style="edgeStyle=orthogonalEdgeStyle;rounded=0;orthogonalLoop=1;jettySize=auto;html=1;exitX=1;exitY=0.5;exitDx=0;exitDy=0;entryX=1;entryY=0.5;entryDx=0;entryDy=0;fontSize=14;strokeWidth=1.5;endArrow=blockThin;endFill=1;" edge="1" parent="1" source="o7wSBpF5EXSMg-6rn1h5-1" target="o7wSBpF5EXSMg-6rn1h5-2">
          <mxGeometry relative="1" as="geometry">
            <Array as="points">
              <mxPoint x="350" y="310" />
              <mxPoint x="350" y="450" />
            </Array>
          </mxGeometry>
        </mxCell>
        <mxCell id="o7wSBpF5EXSMg-6rn1h5-1" value="智能体" style="rounded=1;whiteSpace=wrap;html=1;fontSize=18;fillColor=#f8cecc;strokeColor=#b85450;" vertex="1" parent="1">
          <mxGeometry x="160" y="280" width="120" height="60" as="geometry" />
        </mxCell>
        <mxCell id="o7wSBpF5EXSMg-6rn1h5-4" style="edgeStyle=orthogonalEdgeStyle;rounded=0;orthogonalLoop=1;jettySize=auto;html=1;exitX=0;exitY=0.25;exitDx=0;exitDy=0;entryX=0;entryY=0.75;entryDx=0;entryDy=0;fontSize=14;strokeWidth=1.5;endArrow=blockThin;endFill=1;" edge="1" parent="1" source="o7wSBpF5EXSMg-6rn1h5-2" target="o7wSBpF5EXSMg-6rn1h5-1">
          <mxGeometry relative="1" as="geometry">
            <Array as="points">
              <mxPoint x="110" y="435" />
              <mxPoint x="110" y="325" />
            </Array>
          </mxGeometry>
        </mxCell>
        <mxCell id="o7wSBpF5EXSMg-6rn1h5-5" style="edgeStyle=orthogonalEdgeStyle;rounded=0;orthogonalLoop=1;jettySize=auto;html=1;exitX=0;exitY=0.75;exitDx=0;exitDy=0;entryX=0;entryY=0.25;entryDx=0;entryDy=0;fontSize=14;strokeWidth=1.5;endArrow=blockThin;endFill=1;" edge="1" parent="1" source="o7wSBpF5EXSMg-6rn1h5-2" target="o7wSBpF5EXSMg-6rn1h5-1">
          <mxGeometry relative="1" as="geometry">
            <Array as="points">
              <mxPoint x="90" y="465" />
              <mxPoint x="90" y="295" />
            </Array>
          </mxGeometry>
        </mxCell>
        <mxCell id="o7wSBpF5EXSMg-6rn1h5-2" value="环境" style="rounded=0;whiteSpace=wrap;html=1;fontSize=18;fillColor=#dae8fc;strokeColor=#6c8ebf;" vertex="1" parent="1">
          <mxGeometry x="160" y="420" width="120" height="60" as="geometry" />
        </mxCell>
        <mxCell id="o7wSBpF5EXSMg-6rn1h5-6" value="动作$$a_{t}$$" style="text;html=1;align=center;verticalAlign=middle;resizable=0;points=[];autosize=1;strokeColor=none;fillColor=none;fontSize=14;" vertex="1" parent="1">
          <mxGeometry x="320" y="370" width="110" height="30" as="geometry" />
        </mxCell>
        <mxCell id="o7wSBpF5EXSMg-6rn1h5-7" value="奖励$$r_{t-1}$$" style="text;html=1;align=center;verticalAlign=middle;resizable=0;points=[];autosize=1;strokeColor=none;fillColor=none;fontSize=14;" vertex="1" parent="1">
          <mxGeometry x="70" y="370" width="120" height="30" as="geometry" />
        </mxCell>
        <mxCell id="o7wSBpF5EXSMg-6rn1h5-8" value="状态$$s_{t}$$" style="text;html=1;align=center;verticalAlign=middle;resizable=0;points=[];autosize=1;strokeColor=none;fillColor=none;fontSize=14;" vertex="1" parent="1">
          <mxGeometry x="10" y="370" width="110" height="30" as="geometry" />
        </mxCell>
        <mxCell id="o7wSBpF5EXSMg-6rn1h5-13" value="$$s_{t+1}$$" style="text;html=1;align=center;verticalAlign=middle;resizable=0;points=[];autosize=1;strokeColor=none;fillColor=none;fontSize=14;fontColor=light-dark(#82b367, #ededed);" vertex="1" parent="1">
          <mxGeometry x="90" y="460" width="100" height="30" as="geometry" />
        </mxCell>
        <mxCell id="o7wSBpF5EXSMg-6rn1h5-14" value="$$r_{t}$$" style="text;html=1;align=center;verticalAlign=middle;resizable=0;points=[];autosize=1;strokeColor=none;fillColor=none;fontSize=14;fontColor=light-dark(#82b367, #ededed);" vertex="1" parent="1">
          <mxGeometry x="100" y="410" width="80" height="30" as="geometry" />
        </mxCell>
        <mxCell id="o7wSBpF5EXSMg-6rn1h5-19" style="rounded=0;orthogonalLoop=1;jettySize=auto;html=1;fontSize=14;strokeWidth=2;endArrow=blockThin;endFill=1;fillColor=#d5e8d4;strokeColor=#82b366;" edge="1" parent="1">
          <mxGeometry relative="1" as="geometry">
            <mxPoint x="160" y="435" as="sourcePoint" />
            <mxPoint x="120" y="435" as="targetPoint" />
          </mxGeometry>
        </mxCell>
        <mxCell id="o7wSBpF5EXSMg-6rn1h5-20" style="rounded=0;orthogonalLoop=1;jettySize=auto;html=1;fontSize=14;strokeWidth=2;endArrow=blockThin;endFill=1;fillColor=#d5e8d4;strokeColor=#82b366;" edge="1" parent="1">
          <mxGeometry relative="1" as="geometry">
            <mxPoint x="160" y="465" as="sourcePoint" />
            <mxPoint x="120" y="465" as="targetPoint" />
          </mxGeometry>
        </mxCell>
        <mxCell id="o7wSBpF5EXSMg-6rn1h5-24" value="" style="endArrow=none;html=1;rounded=0;fillColor=#d5e8d4;strokeColor=#82b366;strokeWidth=2;" edge="1" parent="1">
          <mxGeometry width="50" height="50" relative="1" as="geometry">
            <mxPoint x="120" y="470" as="sourcePoint" />
            <mxPoint x="120" y="430" as="targetPoint" />
          </mxGeometry>
        </mxCell>
      </root>
    </mxGraphModel>
  </diagram>
</mxfile>
